<?xml version="1.0" encoding="UTF-8" standalone="no"?>
<svg
   xmlns:dc="http://purl.org/dc/elements/1.1/"
   xmlns:cc="http://creativecommons.org/ns#"
   xmlns:rdf="http://www.w3.org/1999/02/22-rdf-syntax-ns#"
   xmlns:svg="http://www.w3.org/2000/svg"
   xmlns="http://www.w3.org/2000/svg"
   viewBox="0 0 858.17334 147.98666"
   height="147.98666"
   width="858.17334"
   xml:space="preserve"
   version="1.1"
   id="svg2"><metadata
     id="metadata8"><rdf:RDF><cc:Work
         rdf:about=""><dc:format>image/svg+xml</dc:format><dc:type
           rdf:resource="http://purl.org/dc/dcmitype/StillImage" /></cc:Work></rdf:RDF></metadata><defs
     id="defs6"><clipPath
       id="clipPath18"
       clipPathUnits="userSpaceOnUse"><path
         id="path20"
         d="m 0,0 6436,0 0,1109.92 -6436,0 L 0,0 Z" /></clipPath></defs><g
     transform="matrix(1.3333333,0,0,-1.3333333,0,147.98667)"
     id="g10"><g
       transform="scale(0.1)"
       id="g12"><g
         id="g14"><g
           clip-path="url(#clipPath18)"
           id="g16"><path
             id="path22"
             style="fill:#231f20;fill-opacity:1;fill-rule:nonzero;stroke:none"
             d="m 578.105,363.887 c 0,-27.871 1.723,-52.246 -12.199,-80.102 -19.148,-40.039 -87.054,-99.234 -201.953,-99.234 -104.449,0 -142.758,50.484 -142.758,102.715 0,38.3 20.875,67.886 50.5,87.05 43.508,26.114 93.993,27.872 141.008,36.563 85.305,13.941 130.574,31.348 165.402,48.75 l 0,-95.742 z M 825.328,26.1094 C 790.504,81.8281 787.016,100.969 787.016,167.129 l 0,463.129 c 0,48.738 0,109.687 -22.629,154.949 -6.965,13.922 -26.117,43.512 -62.672,69.629 -53.981,38.309 -137.527,67.91 -280.297,67.91 -151.477,0 -233.305,-34.832 -287.277,-80.098 C 48.8281,773.02 41.8711,680.754 40.1172,642.445 L 252.539,630.258 c 0,12.187 -1.754,46.992 22.633,76.613 22.637,29.586 73.109,53.953 153.211,53.953 76.582,0 120.133,-26.121 137.523,-59.195 10.446,-20.875 12.199,-48.75 12.199,-71.371 C 513.688,607.621 466.688,597.188 337.844,571.066 257.75,555.391 189.844,544.957 118.457,496.207 12.2773,424.82 0.0820312,327.32 0.0820312,278.57 -1.66797,208.926 24.4492,161.91 38.3945,139.297 118.457,10.4492 275.172,5.23047 316.938,5.23047 c 64.417,0 118.398,13.92973 175.867,40.03903 17.394,6.9493 46.992,20.8789 80.07,48.75 l 5.23,-67.9101 247.223,0 0,0" /><path
             id="path24"
             style="fill:#231f20;fill-opacity:1;fill-rule:nonzero;stroke:none"
             d="m 1500.79,470.098 c 0,-19.16 -5.21,-114.946 -50.48,-184.575 -48.74,-76.597 -125.36,-87.046 -158.43,-87.046 -62.67,0 -106.22,29.589 -123.61,41.796 -73.14,55.704 -88.78,151.461 -88.78,236.778 0,27.832 -1.76,127.078 67.87,198.469 36.58,38.304 81.85,57.46 135.8,57.46 67.9,0 132.33,-33.093 170.63,-88.808 47,-66.152 48.75,-151.457 47,-174.074 l 0,0 z m 214.15,-3.496 c 0,182.8 -78.34,292.488 -130.57,346.453 -94.02,95.761 -200.23,109.691 -252.46,109.691 -38.31,0 -134.05,-8.723 -221.11,-74.867 -8.69,-6.953 -19.15,-15.676 -27.84,-24.391 l -0.01,286.432 -208.93,-13.97 0,-1069.8406 207.19,0 0,90.5466 c 12.2,-13.926 24.39,-26.1169 38.31,-38.3162 C 1201.34,8.71094 1274.48,0 1319.74,0 c 33.08,0 104.46,6.96875 181.05,50.5117 148,83.5503 214.15,252.4183 214.15,416.0903 l 0,0" /><path
             id="path26"
             style="fill:#231f20;fill-opacity:1;fill-rule:nonzero;stroke:none"
             d="m 4057.42,363.887 c 0,-27.871 1.74,-52.246 -12.19,-80.102 -19.15,-40.039 -87.05,-99.234 -201.95,-99.234 -104.45,0 -142.76,50.484 -142.76,102.715 0,38.3 20.88,67.886 50.5,87.05 43.51,26.114 93.99,27.872 141.01,36.563 85.3,13.941 130.57,31.348 165.39,48.75 l 0,-95.742 z M 4304.66,26.1094 c -34.84,55.7187 -38.31,74.8596 -38.31,141.0196 l 0,463.129 c 0,48.738 0,109.687 -22.64,154.949 -6.96,13.922 -26.11,43.512 -62.67,69.629 -53.98,38.309 -137.52,67.91 -280.3,67.91 -151.47,0 -233.3,-34.832 -287.28,-80.098 -85.31,-69.628 -92.26,-161.894 -94.02,-200.203 l 212.43,-12.187 c 0,12.187 -1.76,46.992 22.62,76.613 22.64,29.586 73.12,53.953 153.22,53.953 76.58,0 120.12,-26.121 137.52,-59.195 10.44,-20.875 12.19,-48.75 12.19,-71.371 -64.41,-22.637 -111.4,-33.07 -240.25,-59.192 -80.1,-15.675 -148.01,-26.109 -219.39,-74.859 C 3491.6,424.82 3479.4,327.32 3479.4,278.57 c -1.74,-69.644 24.37,-116.66 38.31,-139.273 80.07,-128.8478 236.78,-134.06653 278.55,-134.06653 64.42,0 118.41,13.92973 175.87,40.03903 17.4,6.9493 46.99,20.8789 80.07,48.75 l 5.22,-67.9101 247.24,0 0,0" /><path
             id="path28"
             style="fill:#231f20;fill-opacity:1;fill-rule:nonzero;stroke:none"
             d="m 6189.06,363.887 c 0,-27.871 1.73,-52.246 -12.18,-80.102 -19.17,-40.039 -87.07,-99.234 -201.96,-99.234 -104.46,0 -142.77,50.484 -142.77,102.715 0,38.3 20.89,67.886 50.51,87.05 43.51,26.114 93.98,27.872 141,36.563 85.31,13.941 130.58,31.348 165.4,48.75 l 0,-95.742 z M 6436.29,26.1094 c -34.83,55.7187 -38.31,74.8596 -38.31,141.0196 l 0,463.129 c 0,48.738 0,109.687 -22.64,154.949 -6.95,13.922 -26.11,43.512 -62.66,69.629 -53.99,38.309 -137.53,67.91 -280.3,67.91 -151.48,0 -233.3,-34.832 -287.28,-80.098 -85.31,-69.628 -92.27,-161.894 -94.02,-200.203 l 212.42,-12.187 c 0,12.187 -1.76,46.992 22.63,76.613 22.64,29.586 73.11,53.953 153.21,53.953 76.59,0 120.13,-26.121 137.54,-59.195 10.42,-20.875 12.18,-48.75 12.18,-71.371 -64.41,-22.637 -111.41,-33.07 -240.25,-59.192 -80.1,-15.675 -148.01,-26.109 -219.39,-74.859 C 5623.24,424.82 5611.04,327.32 5611.04,278.57 5609.29,208.926 5635.41,161.91 5649.36,139.297 5729.42,10.4492 5886.13,5.23047 5927.9,5.23047 c 64.41,0 118.4,13.92973 175.86,40.03903 17.4,6.9493 47,20.8789 80.07,48.75 l 5.23,-67.9101 247.23,0 0,0" /><path
             id="path30"
             style="fill:#231f20;fill-opacity:1;fill-rule:nonzero;stroke:none"
             d="m 2495.63,297.73 c 0,106.172 -63.13,167.129 -93.82,189.75 -37.55,27.872 -88.73,43.512 -134.82,53.985 -46.05,10.437 -92.13,17.406 -138.19,26.109 -68.26,12.176 -124.55,26.121 -146.72,43.524 -5.14,3.484 -25.6,24.382 -27.31,53.976 0,15.68 6.81,43.524 37.53,64.43 37.55,26.117 95.55,26.117 104.09,26.117 69.96,0 126.25,-15.676 179.14,-62.699 13.64,-12.168 35.83,-33.074 52.91,-69.629 l 145.01,137.531 c -127.96,151.473 -300.29,161.922 -366.82,161.922 -184.28,0 -284.96,-81.82 -327.6,-149.726 -11.95,-19.161 -39.24,-67.911 -39.24,-134.051 0,-188.031 197.92,-236.781 235.47,-247.235 54.59,-13.945 110.87,-20.894 167.19,-33.086 63.13,-13.921 90.41,-15.664 112.59,-47.007 11.95,-15.664 13.67,-29.59 13.67,-36.543 0,-17.422 -8.53,-36.582 -22.17,-50.508 -34.14,-40.039 -93.86,-52.231 -145.05,-52.231 -23.87,0 -133.09,3.481 -206.45,67.914 -22.18,19.137 -32.41,34.825 -39.23,43.512 L 1702.26,156.68 c 25.59,-26.114 52.87,-48.731 81.9,-67.8909 C 1837.04,55.6992 1951.36,0 2111.72,0 c 208.18,0 313.95,99.2617 354.91,179.316 18.77,36.563 29,76.622 29,118.414 l 0,0" /><path
             id="path32"
             style="fill:#231f20;fill-opacity:1;fill-rule:nonzero;stroke:none"
             d="m 2946.82,33.0781 0,175.8479 c -26.11,-6.977 -55.71,-10.449 -85.3,-10.449 -5.23,0 -55.71,-1.719 -80.09,26.113 -26.12,27.867 -20.88,94.019 -20.88,128.848 l 0,395.187 186.27,0 0,148.004 -186.27,0 0,210.801 -208.95,-13.99 0,-788.752 c 0,-76.622 1.76,-137.559 10.44,-165.391 1.76,-8.731 8.72,-29.606 26.14,-50.5079 34.8,-41.8008 93.99,-69.6289 208.92,-69.6289 71.39,0 121.86,10.4296 149.72,13.9179 l 0,0" /><path
             id="path34"
             style="fill:#231f20;fill-opacity:1;fill-rule:nonzero;stroke:none"
             d="m 3500.46,701.629 0,214.156 -17.42,0 c -24.37,0 -137.54,-3.488 -207.17,-71.39 -20.91,-19.149 -38.31,-45.266 -52.26,-71.375 l 0,123.609 -201.95,0 0,-870.5196 201.95,0 0,372.5976 c 0,50.473 0,94.008 15.68,142.758 50.5,160.164 217.62,160.164 261.17,160.164 l 0,0" /><path
             id="path36"
             style="fill:#231f20;fill-opacity:1;fill-rule:nonzero;stroke:none"
             d="m 5144.49,271.602 -177.56,94.019 c -15.67,-38.301 -60.94,-170.625 -210.67,-170.625 -109.69,0 -181.07,74.863 -207.19,175.844 -5.23,17.398 -12.19,50.508 -12.19,95.762 0,29.605 0,127.093 64.42,201.957 40.04,47 88.79,67.898 149.73,67.898 80.09,0 121.88,-34.828 146.25,-59.207 12.18,-12.176 38.3,-41.77 52.22,-88.797 l 186.31,87.067 c -57.47,134.054 -161.92,194.992 -212.42,215.878 -50.48,20.899 -106.18,31.348 -161.93,31.348 -195,0 -304.65,-113.172 -346.44,-168.887 -64.42,-83.578 -94.01,-186.285 -94.01,-292.496 0,-73.125 17.4,-315.117 248.97,-421.3239 C 4648.32,5.23047 4719.71,0 4751.03,0 c 130.56,0 259.42,59.1992 337.75,165.406 24.39,33.071 41.8,69.629 55.71,106.196 l 0,0" /><path
             id="path38"
             style="fill:#231f20;fill-opacity:1;fill-rule:nonzero;stroke:none"
             d="m 5587.98,33.0781 0,175.8479 c -26.11,-6.977 -55.7,-10.449 -85.3,-10.449 -5.24,0 -55.71,-1.719 -80.1,26.113 -26.12,27.867 -20.88,94.019 -20.88,128.848 l 0,395.187 186.28,0 0,148.004 -186.28,0 0,210.801 -208.94,-13.99 0,-788.752 c 0,-76.622 1.75,-137.559 10.44,-165.391 1.75,-8.731 8.71,-29.606 26.15,-50.5079 34.79,-41.8008 93.98,-69.6289 208.9,-69.6289 71.39,0 121.87,10.4296 149.73,13.9179 l 0,0" /></g></g></g></g></svg>